<svg width="38" height="40" viewBox="0 0 38 40" fill="none" xmlns="http://www.w3.org/2000/svg">
<mask id="mask0_583_1536" style="mask-type:alpha" maskUnits="userSpaceOnUse" x="0" y="0" width="38" height="40">
<path d="M19 39.1029C29.4934 39.1029 38 30.3494 38 19.5515C38 8.75349 29.4934 0 19 0C8.5066 0 0 8.75349 0 19.5515C0 30.3494 8.5066 39.1029 19 39.1029Z" fill="#03012A"/>
</mask>
<g mask="url(#mask0_583_1536)">
<path fill-rule="evenodd" clip-rule="evenodd" d="M21.5832 1.69422C21.5462 2.20294 21.103 2.58543 20.5933 2.54854C17.1587 2.29997 13.6002 3.04658 10.3968 4.88275L10.2807 4.96448L10.2461 4.98462C2.60132 9.43242 -0.0598584 19.3445 4.33241 27.0112L4.3523 27.046L4.41164 27.1741C9.25529 35.4782 19.7626 38.4766 28.2157 34.0926C28.6691 33.8574 29.2278 34.0337 29.4635 34.4863C29.6991 34.9389 29.5225 35.4964 29.069 35.7316C19.7269 40.5766 8.11948 37.2506 2.78893 28.0634L2.76757 28.0266L2.70566 27.8928C-2.156 19.3624 0.795007 8.37086 9.27895 3.40935L9.39907 3.32478L9.43546 3.30382C12.9773 1.26295 16.9199 0.430775 20.7272 0.706313C21.2369 0.743202 21.6201 1.1855 21.5832 1.69422Z" fill="#13BFB3"/>
<path fill-rule="evenodd" clip-rule="evenodd" d="M9.7456 10.3415C13.6241 6.49655 19.1035 5.27374 24.0167 6.65989C24.5085 6.79864 25.0199 6.51323 25.1589 6.02241C25.2979 5.53159 25.012 5.02123 24.5202 4.88248C18.9734 3.31758 12.7749 4.70587 8.40126 9.0709L8.36509 9.107L8.25909 9.23918C7.93974 9.63739 8.00432 10.2186 8.40332 10.5373C8.80232 10.856 9.38465 10.7916 9.704 10.3934L9.7456 10.3415Z" fill="#13BFB3"/>
<path fill-rule="evenodd" clip-rule="evenodd" d="M12.2084 12.5378C12.2083 12.5379 12.2085 12.5377 12.2084 12.5378L12.1346 12.6115C11.7734 12.9723 11.1875 12.9726 10.826 12.612C10.4645 12.2515 10.4642 11.6668 10.8255 11.306L10.8995 11.232C14.6052 7.53363 19.9822 6.52245 24.5987 8.17079C25.0799 8.3426 25.3304 8.8712 25.1583 9.35145C24.9861 9.83169 24.4565 10.0817 23.9753 9.90991C20.0046 8.49216 15.3874 9.36532 12.2084 12.5378Z" fill="#13BFB3"/>
<path fill-rule="evenodd" clip-rule="evenodd" d="M23.8876 13.2446C20.9003 11.7374 17.1898 12.2205 14.7065 14.6989L14.6506 14.7546C14.2891 15.1151 13.7032 15.1148 13.342 14.7539C12.9808 14.3931 12.9811 13.8083 13.3427 13.4479L13.3978 13.3928C13.398 13.3927 13.3977 13.393 13.3978 13.3928C16.4667 10.3304 21.0475 9.74195 24.7226 11.5963C25.1787 11.8264 25.3615 12.3819 25.1309 12.8371C24.9003 13.2923 24.3437 13.4748 23.8876 13.2446Z" fill="#13BFB3"/>
<path fill-rule="evenodd" clip-rule="evenodd" d="M23.6329 16.8602C21.8474 15.0782 18.9725 15.0782 17.187 16.8602L17.1517 16.8955C15.6046 18.4562 15.6046 21.0324 17.1517 22.5931C17.1522 22.5936 17.1527 22.5941 17.1531 22.5946L17.187 22.6284C18.9073 24.3452 21.6936 24.3931 23.4779 22.7658C23.8552 22.4218 24.4405 22.4481 24.7852 22.8246C25.13 23.2011 25.1036 23.7853 24.7263 24.1293C22.217 26.4179 18.3037 26.355 15.8784 23.9345L15.8382 23.8943C13.5748 21.6134 13.5748 17.8751 15.8382 15.5942L15.8413 15.5911L15.8784 15.5541C18.3866 13.0508 22.4333 13.0508 24.9415 15.5541C25.3029 15.9147 25.3029 16.4995 24.9415 16.8602C24.5802 17.2208 23.9943 17.2208 23.6329 16.8602Z" fill="#13BFB3"/>
</g>
</svg>
