<svg width="24" height="25" viewBox="0 0 24 25" fill="none" xmlns="http://www.w3.org/2000/svg">
<path fill-rule="evenodd" clip-rule="evenodd" d="M20.3398 13.1159C20.3398 12.6464 19.9593 12.2659 19.4898 12.2659L6.21242 12.2659C5.74297 12.2659 5.36242 12.6464 5.36242 13.1159C5.36242 13.5853 5.74297 13.9659 6.21242 13.9659L19.4898 13.9659C19.9593 13.9659 20.3398 13.5853 20.3398 13.1159Z" fill="black"/>
<path fill-rule="evenodd" clip-rule="evenodd" d="M10.1294 7.53586C9.79742 7.20391 9.25923 7.20391 8.92728 7.53586L4.63243 11.8307C3.90996 12.5532 3.90996 13.7245 4.63243 14.447L8.9076 18.7222C9.23954 19.0541 9.77773 19.0541 10.1097 18.7222C10.4416 18.3902 10.4416 17.852 10.1097 17.5201L5.83451 13.2449C5.77593 13.1863 5.77593 13.0914 5.83451 13.0328L10.1294 8.73794C10.4613 8.40599 10.4613 7.8678 10.1294 7.53586Z" fill="black"/>
</svg>
