<svg width="144" height="30" viewBox="0 0 144 30" fill="none" xmlns="http://www.w3.org/2000/svg">
<path d="M62.7004 7.90698C64.2205 8.58869 65.4758 9.66311 66.4664 11.1302C67.3599 12.4253 67.938 13.9277 68.2027 15.6353C68.3549 16.6369 68.4189 18.0775 68.3902 19.9616H52.5166C52.6049 22.148 53.366 23.6813 54.7956 24.5593C55.6649 25.1065 56.7128 25.38 57.9373 25.38C59.2345 25.38 60.2891 25.0469 61.1009 24.3806C61.5422 24.021 61.9349 23.5202 62.2746 22.8804H68.0924C67.938 24.1733 67.2342 25.4859 65.9788 26.8185C64.0264 28.9386 61.2929 29.9976 57.7784 29.9976C54.8773 29.9976 52.3181 29.1041 50.1031 27.3171C47.8858 25.5301 46.7783 22.6201 46.7783 18.5916C46.7783 14.8168 47.7799 11.92 49.781 9.90579C51.782 7.89153 54.3809 6.8833 57.5754 6.8833C59.4706 6.88551 61.1804 7.22747 62.7004 7.90698ZM54.1757 12.8312C53.3704 13.6607 52.8652 14.7859 52.6578 16.2045H62.4754C62.3717 14.691 61.8643 13.5438 60.9575 12.7606C60.0486 11.9774 58.9234 11.5847 57.5777 11.5847C56.1127 11.5847 54.981 11.9995 54.1757 12.8312Z" fill="#011638"/>
<path d="M39.5666 7.90698C41.0867 8.58869 42.342 9.66311 43.3326 11.1302C44.2261 12.4253 44.8042 13.9277 45.0689 15.6353C45.2211 16.6369 45.2851 18.0775 45.2564 19.9616H29.3828C29.4711 22.148 30.2322 23.6813 31.6618 24.5593C32.5311 25.1065 33.579 25.38 34.8035 25.38C36.1007 25.38 37.1553 25.0469 37.9672 24.3806C38.4084 24.021 38.8011 23.5202 39.1409 22.8804H44.9586C44.8042 24.1733 44.1004 25.4859 42.8451 26.8185C40.8926 28.9386 38.1591 29.9976 34.6446 29.9976C31.7435 29.9976 29.1843 29.1041 26.9693 27.3171C24.752 25.5301 23.6445 22.6201 23.6445 18.5916C23.6445 14.8168 24.6461 11.92 26.6472 9.90579C28.6482 7.89153 31.2471 6.8833 34.4417 6.8833C36.3368 6.88551 38.0466 7.22747 39.5666 7.90698ZM31.0419 12.8312C30.2366 13.6607 29.7314 14.7859 29.524 16.2045H39.3416C39.2379 14.691 38.7305 13.5438 37.8238 12.7606C36.9148 11.9774 35.7896 11.5847 34.4439 11.5847C32.9812 11.5847 31.8472 11.9995 31.0419 12.8312Z" fill="#011638"/>
<path d="M69.9019 0H75.6203V16.2376L82.5566 8.28868H89.7929L82.2191 16.1317L90.5055 29.9976H83.4214L78.0273 20.4867L75.6159 22.993V29.9976H69.8975V0H69.9019Z" fill="#011638"/>
<path d="M118.685 26.6156C116.856 28.8726 114.08 30 110.359 30C106.637 30 103.861 28.8726 102.032 26.6156C100.206 24.3587 99.29 21.6429 99.29 18.466C99.29 15.342 100.203 12.635 102.032 10.3472C103.861 8.05713 106.637 6.91211 110.359 6.91211C114.08 6.91211 116.856 8.05713 118.685 10.3472C120.511 12.6372 121.427 15.3442 121.427 18.466C121.427 21.6429 120.514 24.3587 118.685 26.6156ZM114.155 23.4851C115.042 22.3069 115.486 20.6346 115.486 18.466C115.486 16.2973 115.042 14.6272 114.155 13.4557C113.268 12.2842 111.996 11.6996 110.339 11.6996C108.682 11.6996 107.409 12.2842 106.515 13.4557C105.622 14.6272 105.174 16.2973 105.174 18.466C105.174 20.6346 105.622 22.3092 106.515 23.4851C107.409 24.6632 108.684 25.25 110.339 25.25C111.996 25.2522 113.266 24.6632 114.155 23.4851Z" fill="#011638"/>
<path d="M135.032 7.83415C135.105 7.84077 135.268 7.84959 135.52 7.86283V13.6651C135.162 13.6254 134.845 13.5989 134.567 13.5857C134.289 13.5725 134.064 13.5658 133.891 13.5658C131.612 13.5658 130.084 14.3071 129.303 15.7919C128.866 16.6258 128.647 17.9121 128.647 19.6461V29.9976H122.944V8.34158H128.35V12.1164C129.223 10.6735 129.987 9.68515 130.635 9.15566C131.694 8.26877 133.073 7.82312 134.767 7.82312C134.871 7.82533 134.961 7.82753 135.032 7.83415Z" fill="#011638"/>
<path d="M7.36016 25.7044C7.36016 27.1163 6.5527 28.3386 5.37679 28.9342C4.88481 29.1857 4.32444 29.3269 3.73538 29.3269C2.84849 29.3269 2.03661 29.007 1.40564 28.4798C0.611411 27.8157 0.108398 26.8185 0.108398 25.7044C0.108398 23.7011 1.73216 22.0796 3.73318 22.0796C4.93556 22.0796 6.00115 22.6664 6.65859 23.5666C7.0535 24.1071 7.3028 24.7579 7.35134 25.4639C7.35796 25.5411 7.36016 25.6227 7.36016 25.7044Z" fill="#32B7AF"/>
<path d="M92.0332 8.34155H97.7759V29.9998H92.0332V8.34155Z" fill="#011638"/>
<path d="M98.4069 3.45941C98.4069 4.80298 97.6369 5.96786 96.5162 6.53705C96.0462 6.77753 95.5146 6.91211 94.952 6.91211C94.107 6.91211 93.3348 6.60765 92.7325 6.10464C91.9758 5.47146 91.4971 4.5228 91.4971 3.46162C91.4971 1.55326 93.0458 0.00671387 94.952 0.00671387C96.097 0.00671387 97.1118 0.564881 97.7384 1.42309C98.1157 1.93714 98.3539 2.55708 98.3981 3.22997C98.4047 3.30277 98.4069 3.38219 98.4069 3.45941Z" fill="#011638"/>
<path d="M11.1371 29.3269C10.6782 29.3269 10.2083 29.3048 9.71852 29.2607C9.22654 29.2166 8.93091 28.6937 9.14491 28.2503C9.50011 27.5112 9.68764 26.6949 9.68764 25.8654C9.68764 25.7418 9.68322 25.6139 9.6744 25.4947C9.66337 25.3182 9.64131 25.1417 9.61263 24.9652C9.53541 24.4975 9.91267 24.085 10.3826 24.1335C10.6142 24.1534 10.8172 24.1644 11.0136 24.1644C11.5077 24.1644 11.9512 24.1026 12.366 23.9769C13.1668 23.732 13.8243 23.1782 14.1706 22.459C14.3537 22.0795 14.453 21.6559 14.4596 21.2323C14.4596 20.8683 14.3912 20.5264 14.2545 20.2043C14.1133 19.8777 13.9125 19.5909 13.6522 19.3483C13.1734 18.8695 12.3483 18.5033 11.1459 18.2452L7.91385 17.4906C6.60779 17.2215 5.36349 16.7824 4.19421 16.1802C3.27643 15.708 2.45793 15.0837 1.75636 14.327C1.15848 13.6695 0.706211 12.904 0.419406 12.0502C0.139219 11.203 -0.00197794 10.3139 0.000228261 9.41376C-0.00859652 8.23785 0.238497 7.10607 0.734892 6.0471C1.23129 4.99033 1.93065 4.06152 2.81754 3.29156C3.764 2.46865 4.85386 1.83106 6.05182 1.39865C7.36231 0.924313 8.73235 0.683838 10.1267 0.683838H10.2105C12.163 0.683838 13.8221 0.9552 15.148 1.49351C16.3592 1.95461 17.4468 2.62529 18.3911 3.49453C19.1566 4.20272 19.7655 5.0499 20.2024 6.01401C20.3678 6.38024 20.5068 6.7597 20.6171 7.14799C20.7319 7.55173 20.4759 7.96649 20.0634 8.0415L15.5098 8.87324C15.1811 8.93281 14.8479 8.75631 14.7288 8.44524C14.506 7.85839 14.1706 7.31787 13.7404 6.85457C12.9881 6.03607 11.8387 5.6191 10.3252 5.6191C10.3054 5.6191 10.2701 5.6191 10.2348 5.6191C9.35229 5.6191 8.50291 5.88825 7.78148 6.39789C7.41084 6.64719 7.09756 7.00238 6.88577 7.41935C6.6828 7.82088 6.57911 8.27315 6.58793 8.72542C6.57469 9.08724 6.64309 9.45347 6.78869 9.7844C6.93651 10.1197 7.16595 10.4242 7.45055 10.6647L7.47041 10.6801C8.01975 11.1059 8.67279 11.3861 9.35671 11.4898L13.0962 12.2244C15.8937 12.7981 17.9829 13.8526 19.3 15.3528C20.584 16.7626 21.2812 18.5739 21.268 20.4646C21.268 21.5986 21.054 22.6995 20.6326 23.743C20.2046 24.802 19.5339 25.7727 18.6933 26.5493C17.7336 27.4318 16.6195 28.1157 15.384 28.5834C14.0581 29.0842 12.6682 29.3269 11.1371 29.3269Z" fill="#011638"/>
</svg>

