<svg width="91" height="62" viewBox="0 0 91 62" fill="none" xmlns="http://www.w3.org/2000/svg">
<path d="M42.3594 27.289C42.0643 28.3329 41.6101 29.3249 41.0131 30.2297C40.3953 31.173 39.6142 31.9979 38.707 32.6653C37.7222 33.3874 36.6261 33.9424 35.4622 34.3083C34.1327 34.725 32.7459 34.9286 31.3532 34.9113C29.7441 34.9154 28.148 34.6213 26.6453 34.044C25.165 33.4805 23.8104 32.6289 22.6594 31.5381C21.48 30.4088 20.5472 29.0461 19.92 27.5362C19.2215 25.8238 18.8783 23.9864 18.9114 22.1364C18.8849 20.3417 19.22 18.5601 19.8967 16.8985C20.5065 15.4103 21.4052 14.0586 22.5405 12.9222C24.749 10.7385 27.7218 9.50929 30.8223 9.4978C34.5356 9.4978 37.4583 10.5746 39.5904 12.7283C41.7224 14.882 42.7877 17.9036 42.7863 21.7933C42.7863 22.3076 42.77 22.7977 42.7374 23.2636C42.7322 23.5311 42.7002 23.7974 42.6419 24.0585H26.0231C26.0472 24.7079 26.2202 25.343 26.5285 25.9145C26.831 26.4772 27.2383 26.9763 27.7283 27.3849C28.2307 27.8086 28.8066 28.1358 29.4271 28.3502C30.0763 28.5767 30.7593 28.6905 31.4466 28.6869C32.7901 28.6869 33.8391 28.3978 34.5937 27.8196C35.348 27.2368 35.9223 26.4514 36.25 25.5544L42.3594 27.289ZM35.7276 19.3342C35.6895 18.8558 35.5844 18.3853 35.4155 17.9363C35.2312 17.4449 34.9411 17.0004 34.5661 16.6343C34.1427 16.2226 33.6456 15.8951 33.1008 15.669C32.4057 15.3944 31.6624 15.2639 30.9157 15.2854C30.2239 15.2703 29.5367 15.401 28.8983 15.669C28.3575 15.9025 27.8616 16.2292 27.4331 16.6343C27.0447 17.0024 26.7341 17.4452 26.52 17.9363C26.3207 18.3781 26.1986 18.8509 26.159 19.3342H35.7276Z" fill="#111928"/>
<path d="M66.0782 27.2887C65.7829 28.3322 65.3296 29.324 64.734 30.2294C64.1173 31.1723 63.3378 31.9971 62.4321 32.665C61.4463 33.3879 60.3486 33.943 59.1831 34.308C57.8543 34.7246 56.4683 34.9281 55.0762 34.911C53.4664 34.9153 51.8696 34.6213 50.3662 34.0438C48.8852 33.4805 47.5298 32.6288 46.3782 31.5378C45.2001 30.4079 44.2681 29.0453 43.641 27.5359C42.9407 25.8239 42.5967 23.9863 42.6302 22.1361C42.6045 20.3435 42.9397 18.5642 43.6155 16.9046C44.2261 15.4168 45.1247 14.0653 46.2593 12.9283C48.4684 10.7456 51.4408 9.51652 54.5411 9.50391C58.2558 9.50391 61.1785 10.5807 63.3091 12.7344C65.4398 14.8881 66.5015 17.9097 66.4945 21.7994C66.4945 22.3137 66.4782 22.8038 66.4456 23.2697C66.4416 23.5373 66.4096 23.8037 66.3501 24.0646H49.7419C49.766 24.714 49.939 25.3491 50.2473 25.9206C50.5498 26.4833 50.9571 26.9824 51.4471 27.391C51.9496 27.8145 52.5255 28.1417 53.1459 28.3563C53.7944 28.5829 54.4766 28.6968 55.1633 28.693C56.5068 28.693 57.5558 28.4039 58.3103 27.8257C59.0647 27.2429 59.639 26.4575 59.9667 25.5605L66.0782 27.2887ZM59.4592 19.3339C59.419 18.8559 59.314 18.3856 59.147 17.936C58.9619 17.445 58.672 17.0007 58.2976 16.634C57.8735 16.2233 57.3765 15.8959 56.8324 15.6687C56.1365 15.3943 55.3925 15.2639 54.6451 15.2851C53.9533 15.27 53.2661 15.4007 52.6278 15.6687C52.0869 15.9022 51.591 16.2289 51.1625 16.634C50.7741 17.0021 50.4636 17.4449 50.2494 17.936C50.0501 18.3778 49.928 18.8506 49.8884 19.3339H59.4592Z" fill="#111928"/>
<path d="M80.7178 21.0217L90.2313 34.9068H81.2933L75.6723 26.4683L73.3194 29.0255V34.9068H66.0166V0H73.3194V18.9952L80.5734 10.9445H90.0402L80.7178 21.0217Z" fill="#111928"/>
<path d="M8.88077 34.8811C9.10799 34.8811 9.32459 34.9067 9.5603 34.9067C10.9852 34.9364 12.4032 34.6994 13.7415 34.2077C14.84 33.7928 15.8491 33.1707 16.7145 32.3751C17.4886 31.6571 18.0954 30.7768 18.4919 29.7967C18.8724 28.8484 19.0677 27.8356 19.0674 26.8134C19.079 25.0747 18.4358 23.3957 17.2666 22.1125C16.0689 20.743 14.2208 19.8005 11.7221 19.2848L8.55162 18.6583C8.0615 18.5851 7.59851 18.3861 7.20742 18.0808C7.032 17.9348 6.89288 17.7498 6.8011 17.5404C6.70932 17.3311 6.6674 17.1031 6.67866 16.8747C6.66932 16.577 6.73485 16.2818 6.8692 16.0163C7.00355 15.7507 7.2024 15.5234 7.44738 15.3553C7.98147 14.9795 8.62151 14.7854 9.27362 14.8013C10.392 14.8013 11.2167 15.0904 11.7475 15.6686C12.2736 16.2408 12.602 16.9678 12.684 17.742L18.7382 16.6339C18.6518 15.842 18.4411 15.0689 18.1139 14.3431C17.7213 13.4679 17.1573 12.6809 16.4554 12.0289C15.6091 11.25 14.6234 10.639 13.5504 10.2283C12.3627 9.74529 10.9052 9.50379 9.17807 9.50379C7.91614 9.49324 6.66254 9.70976 5.47674 10.1431C4.4109 10.5258 3.42515 11.1039 2.56962 11.8478C1.77011 12.547 1.12432 13.4055 0.673305 14.3687C0.223356 15.3343 -0.00659983 16.3884 0.000144159 17.4543C-0.00280843 18.2733 0.127007 19.0873 0.384504 19.8644C0.647913 20.6544 1.07325 21.3803 1.63314 21.9953C2.26656 22.6827 3.01465 23.2538 3.84374 23.683C4.87582 24.2156 5.97527 24.6048 7.11187 24.8401L9.8491 25.4794C10.7452 25.6712 11.3618 25.9361 11.6987 26.2742C11.859 26.4258 11.9866 26.6088 12.0736 26.8118C12.1605 27.0149 12.205 27.2338 12.2041 27.4548C12.2005 27.7324 12.1362 28.0058 12.0159 28.2558C11.8956 28.5058 11.722 28.7263 11.5076 28.9017C11.2608 29.1148 10.9711 29.2718 10.6582 29.362L8.88077 34.8811Z" fill="#111928"/>
<path d="M7.92589 36.6028H0.623047V60.5651H7.92589V36.6028Z" fill="#111928"/>
<path d="M23.2055 35.8809C24.9161 35.8651 26.6134 36.1843 28.2022 36.8207C29.6997 37.4208 31.0633 38.314 32.2135 39.4481C33.3638 40.5916 34.278 41.9515 34.904 43.45C35.5767 45.0694 35.9121 46.8099 35.8893 48.5643C35.9104 50.3254 35.5752 52.0724 34.904 53.6998C34.2896 55.2036 33.3795 56.5678 32.228 57.7108C31.0765 58.8539 29.7073 59.7523 28.2022 60.3526C26.6138 60.9907 24.9163 61.3106 23.2055 61.2945C21.4946 61.3106 19.7972 60.9907 18.2088 60.3526C16.7036 59.7523 15.3344 58.8539 14.183 57.7108C13.0315 56.5678 12.1214 55.2036 11.5069 53.6998C10.836 52.0731 10.5009 50.3268 10.5216 48.5664C10.4989 46.812 10.8342 45.0716 11.5069 43.4521C12.1329 41.9537 13.0472 40.5938 14.1974 39.4502C15.3476 38.3161 16.7112 37.4229 18.2088 36.8228C19.7974 36.1857 21.4947 35.8658 23.2055 35.8809ZM23.2055 54.5394C23.895 54.5429 24.5793 54.4201 25.225 54.1771C25.8641 53.9347 26.4435 53.5567 26.9238 53.0691C27.442 52.536 27.8498 51.9052 28.1236 51.213C28.7324 49.5059 28.7324 47.6397 28.1236 45.9326C27.8575 45.2364 27.4487 44.6041 26.9238 44.0765C26.438 43.6014 25.8596 43.2321 25.225 42.9919C23.9299 42.5116 22.5065 42.5116 21.2115 42.9919C20.5652 43.2264 19.976 43.5961 19.4829 44.0765C18.9565 44.6034 18.5469 45.2358 18.281 45.9326C17.6723 47.6317 17.6723 49.4905 18.281 51.1896C18.552 51.8881 18.9608 52.5245 19.4829 53.0605C19.9702 53.5538 20.5606 53.9323 21.2115 54.1686C21.8488 54.4104 22.5241 54.536 23.2055 54.5394Z" fill="#111928"/>
<path d="M52.9012 43.8354C52.5056 43.7428 52.104 43.6787 51.6993 43.6436C51.3149 43.6116 50.9476 43.5946 50.5951 43.5946C49.8738 43.5911 49.1566 43.7048 48.4715 43.9313C47.8007 44.1567 47.1919 44.537 46.6941 45.0415C46.1438 45.6188 45.7256 46.3096 45.4689 47.0659C45.1453 48.0451 44.9937 49.0733 45.0208 50.1046V60.5653H37.7158V36.603H44.7787V39.8335C45.0724 39.1955 45.4888 38.6219 46.004 38.1458C46.4812 37.7076 47.0244 37.348 47.6136 37.0803C48.1754 36.8292 48.7639 36.6433 49.3677 36.5263C49.898 36.4211 50.4368 36.3648 50.9773 36.3579C51.626 36.3469 52.273 36.428 52.8991 36.5987L52.9012 43.8354Z" fill="#111928"/>
<path d="M0.623047 30.6151C0.626645 29.6423 1.01281 28.7103 1.69756 28.0217C2.0268 27.6903 2.41598 27.4248 2.84427 27.2397C3.28436 27.0476 3.75951 26.9496 4.23943 26.952C4.72658 26.9401 5.21098 27.0286 5.66276 27.2118C6.11454 27.3951 6.52412 27.6692 6.86624 28.0174C7.54911 28.7066 7.93242 29.6389 7.93242 30.6108C7.93242 31.5826 7.54911 32.515 6.86624 33.2041C6.52435 33.5527 6.11481 33.827 5.66297 34.0103C5.21114 34.1936 4.72663 34.2818 4.23943 34.2696C3.75951 34.272 3.28436 34.174 2.84427 33.9819C2.41715 33.7984 2.02818 33.536 1.69756 33.2084C1.01748 32.5178 0.635997 31.586 0.635788 30.6151H0.623047Z" fill="#111928"/>
</svg>
