<svg width="146" height="40" viewBox="0 0 146 40" fill="none" xmlns="http://www.w3.org/2000/svg">
<mask id="mask0_583_1535" style="mask-type:alpha" maskUnits="userSpaceOnUse" x="0" y="0" width="38" height="40">
<path d="M19 39.1029C29.4934 39.1029 38 30.3494 38 19.5515C38 8.75349 29.4934 0 19 0C8.5066 0 0 8.75349 0 19.5515C0 30.3494 8.5066 39.1029 19 39.1029Z" fill="#03012A"/>
</mask>
<g mask="url(#mask0_583_1535)">
<path fill-rule="evenodd" clip-rule="evenodd" d="M21.5832 1.69422C21.5462 2.20294 21.103 2.58543 20.5933 2.54854C17.1587 2.29997 13.6002 3.04658 10.3968 4.88275L10.2807 4.96448L10.2461 4.98462C2.60132 9.43242 -0.0598584 19.3445 4.33241 27.0112L4.3523 27.046L4.41164 27.1741C9.25529 35.4782 19.7626 38.4766 28.2157 34.0926C28.6691 33.8574 29.2278 34.0337 29.4635 34.4863C29.6991 34.9388 29.5225 35.4964 29.069 35.7316C19.7269 40.5766 8.11948 37.2506 2.78893 28.0634L2.76757 28.0266L2.70566 27.8928C-2.156 19.3624 0.795007 8.37086 9.27895 3.40935L9.39907 3.32478L9.43546 3.30382C12.9773 1.26295 16.9199 0.430775 20.7272 0.706313C21.2369 0.743202 21.6201 1.1855 21.5832 1.69422Z" fill="#13BFB3"/>
<path fill-rule="evenodd" clip-rule="evenodd" d="M9.7456 10.3415C13.6241 6.49655 19.1035 5.27374 24.0167 6.65989C24.5085 6.79864 25.0199 6.51323 25.1589 6.02241C25.2979 5.53159 25.012 5.02123 24.5202 4.88248C18.9734 3.31758 12.7749 4.70587 8.40126 9.0709L8.36509 9.107L8.25909 9.23918C7.93974 9.63739 8.00432 10.2186 8.40332 10.5373C8.80232 10.856 9.38465 10.7916 9.704 10.3934L9.7456 10.3415Z" fill="#13BFB3"/>
<path fill-rule="evenodd" clip-rule="evenodd" d="M12.2084 12.5378C12.2083 12.5379 12.2085 12.5377 12.2084 12.5378L12.1346 12.6115C11.7734 12.9723 11.1875 12.9726 10.826 12.612C10.4645 12.2515 10.4642 11.6668 10.8255 11.306L10.8995 11.232C14.6052 7.53363 19.9822 6.52245 24.5987 8.17079C25.0799 8.3426 25.3304 8.8712 25.1583 9.35145C24.9861 9.83169 24.4565 10.0817 23.9753 9.90991C20.0046 8.49216 15.3874 9.36532 12.2084 12.5378Z" fill="#13BFB3"/>
<path fill-rule="evenodd" clip-rule="evenodd" d="M23.8876 13.2446C20.9003 11.7374 17.1898 12.2205 14.7065 14.6989L14.6506 14.7546C14.2891 15.1151 13.7032 15.1148 13.342 14.7539C12.9808 14.3931 12.9811 13.8083 13.3427 13.4479L13.3978 13.3928C13.398 13.3927 13.3977 13.393 13.3978 13.3928C16.4667 10.3304 21.0475 9.74195 24.7226 11.5963C25.1787 11.8264 25.3615 12.3819 25.1309 12.8371C24.9003 13.2923 24.3437 13.4748 23.8876 13.2446Z" fill="#13BFB3"/>
<path fill-rule="evenodd" clip-rule="evenodd" d="M23.6329 16.8602C21.8474 15.0782 18.9725 15.0782 17.187 16.8602L17.1517 16.8955C15.6046 18.4562 15.6046 21.0324 17.1517 22.5931C17.1522 22.5936 17.1527 22.5941 17.1531 22.5946L17.187 22.6284C18.9073 24.3452 21.6936 24.3931 23.4779 22.7658C23.8552 22.4218 24.4405 22.4481 24.7852 22.8246C25.13 23.2011 25.1036 23.7853 24.7263 24.1293C22.217 26.4179 18.3037 26.355 15.8784 23.9345L15.8382 23.8943C13.5748 21.6134 13.5748 17.8751 15.8382 15.5942L15.8413 15.5911L15.8784 15.5541C18.3866 13.0508 22.4333 13.0508 24.9415 15.5541C25.3029 15.9147 25.3029 16.4995 24.9415 16.8602C24.5802 17.2208 23.9943 17.2208 23.6329 16.8602Z" fill="#13BFB3"/>
</g>
<path d="M42 17.4261C42 16.1448 42.2748 15.0051 42.8243 14.0072C43.3865 12.9969 44.1788 12.2145 45.2012 11.6601C46.2235 11.0933 47.3992 10.8099 48.7282 10.8099C50.4151 10.8099 51.8336 11.2473 52.9837 12.1221C54.1338 12.9845 54.875 14.1612 55.2073 15.652H51.1627C50.9199 15.1591 50.5812 14.7834 50.1467 14.5246C49.725 14.2659 49.233 14.1365 48.6707 14.1365C47.8017 14.1365 47.1053 14.4384 46.5813 15.0421C46.0702 15.6335 45.8146 16.4282 45.8146 17.4261C45.8146 18.4364 46.0702 19.2434 46.5813 19.8471C47.1053 20.4385 47.8017 20.7342 48.6707 20.7342C49.233 20.7342 49.725 20.6049 50.1467 20.3461C50.5812 20.0874 50.9199 19.7116 51.1627 19.2188H55.2073C54.875 20.7096 54.1338 21.8924 52.9837 22.7671C51.8336 23.6296 50.4151 24.0608 48.7282 24.0608C47.3992 24.0608 46.2235 23.7836 45.2012 23.2292C44.1788 22.6624 43.3865 21.8801 42.8243 20.8821C42.2748 19.8718 42 18.7198 42 17.4261Z" fill="#13BFB3"/>
<path d="M60.7434 10.2925V23.9684H56.9864V10.2925H60.7434Z" fill="#13BFB3"/>
<path d="M73.1575 18.6644C73.1575 18.9477 73.1383 19.2311 73.1 19.5145H65.9883C66.0267 20.0812 66.1864 20.5063 66.4676 20.7897C66.7615 21.0607 67.1321 21.1963 67.5794 21.1963C68.2055 21.1963 68.6528 20.9252 68.9212 20.3831H72.9274C72.7613 21.0977 72.4354 21.7384 71.9498 22.3051C71.477 22.8595 70.8764 23.2969 70.148 23.6173C69.4196 23.9376 68.6145 24.0978 67.7327 24.0978C66.672 24.0978 65.7264 23.8822 64.8957 23.4509C64.0779 23.0197 63.4325 22.4037 62.9597 21.6028C62.4996 20.802 62.2696 19.8595 62.2696 18.7752C62.2696 17.691 62.4996 16.7547 62.9597 15.9661C63.4197 15.1653 64.0587 14.5493 64.8766 14.118C65.7072 13.6868 66.6593 13.4712 67.7327 13.4712C68.7934 13.4712 69.7326 13.6807 70.5505 14.0996C71.3684 14.5185 72.0073 15.1222 72.4674 15.9107C72.9274 16.6869 73.1575 17.6048 73.1575 18.6644ZM69.3237 17.7588C69.3237 17.3153 69.1704 16.9703 68.8637 16.7239C68.557 16.4651 68.1736 16.3358 67.7135 16.3358C67.2535 16.3358 66.8765 16.459 66.5826 16.7054C66.2887 16.9395 66.097 17.2906 66.0075 17.7588H69.3237Z" fill="#13BFB3"/>
<path d="M79.8514 20.5494L81.8641 13.6006H85.8704L82.1708 23.9684H77.4936L73.7941 13.6006H77.8003L79.8514 20.5494Z" fill="#13BFB3"/>
<path d="M97.4179 18.6644C97.4179 18.9477 97.3987 19.2311 97.3604 19.5145H90.2488C90.2871 20.0812 90.4469 20.5063 90.728 20.7897C91.0219 21.0607 91.3925 21.1963 91.8398 21.1963C92.466 21.1963 92.9133 20.9252 93.1816 20.3831H97.1879C97.0218 21.0977 96.6959 21.7384 96.2103 22.3051C95.7375 22.8595 95.1368 23.2969 94.4084 23.6173C93.68 23.9376 92.8749 24.0978 91.9932 24.0978C90.9325 24.0978 89.9868 23.8822 89.1562 23.4509C88.3383 23.0197 87.693 22.4037 87.2201 21.6028C86.7601 20.802 86.5301 19.8595 86.5301 18.7752C86.5301 17.691 86.7601 16.7547 87.2201 15.9661C87.6802 15.1653 88.3192 14.5493 89.137 14.118C89.9677 13.6868 90.9197 13.4712 91.9932 13.4712C93.0538 13.4712 93.9931 13.6807 94.811 14.0996C95.6288 14.5185 96.2678 15.1222 96.7278 15.9107C97.1879 16.6869 97.4179 17.6048 97.4179 18.6644ZM93.5842 17.7588C93.5842 17.3153 93.4308 16.9703 93.1241 16.7239C92.8174 16.4651 92.434 16.3358 91.974 16.3358C91.5139 16.3358 91.137 16.459 90.843 16.7054C90.5491 16.9395 90.3574 17.2906 90.268 17.7588H93.5842Z" fill="#13BFB3"/>
<path d="M102.713 15.4302C103.134 14.8388 103.645 14.3706 104.246 14.0256C104.847 13.6807 105.492 13.5082 106.182 13.5082V17.3707H105.128C104.31 17.3707 103.703 17.5247 103.307 17.8327C102.911 18.1407 102.713 18.6767 102.713 19.4406V23.9684H98.9555V13.6006H102.713V15.4302Z" fill="#13BFB3"/>
<path d="M115.925 21.3441H110.347L109.388 23.9684H107.107L111.88 11.1056H114.411L119.184 23.9684H116.883L115.925 21.3441ZM115.312 19.6254L113.145 13.656L110.96 19.6254H115.312Z" fill="#13BFB3"/>
<path d="M123.444 15.2823C123.815 14.8142 124.32 14.4199 124.958 14.0996C125.597 13.7792 126.319 13.6191 127.125 13.6191C128.045 13.6191 128.882 13.8408 129.636 14.2844C130.402 14.7156 131.003 15.3255 131.438 16.114C131.872 16.9025 132.089 17.8081 132.089 18.8307C132.089 19.8533 131.872 20.7712 131.438 21.5844C131.003 22.3852 130.402 23.0136 129.636 23.4694C128.882 23.913 128.045 24.1347 127.125 24.1347C126.319 24.1347 125.604 23.9807 124.978 23.6727C124.351 23.3524 123.84 22.9581 123.444 22.4899V28.8104H121.259V13.7854H123.444V15.2823ZM129.866 18.8307C129.866 18.1284 129.712 17.5247 129.406 17.0196C129.112 16.5021 128.716 16.114 128.217 15.8553C127.732 15.5842 127.208 15.4487 126.645 15.4487C126.096 15.4487 125.572 15.5842 125.073 15.8553C124.588 16.1263 124.192 16.5206 123.885 17.038C123.591 17.5555 123.444 18.1654 123.444 18.8677C123.444 19.5699 123.591 20.186 123.885 20.7158C124.192 21.2332 124.588 21.6275 125.073 21.8985C125.572 22.1696 126.096 22.3051 126.645 22.3051C127.208 22.3051 127.732 22.1696 128.217 21.8985C128.716 21.6152 129.112 21.2086 129.406 20.6788C129.712 20.149 129.866 19.533 129.866 18.8307Z" fill="#13BFB3"/>
<path d="M136.435 15.2823C136.806 14.8142 137.311 14.4199 137.95 14.0996C138.589 13.7792 139.311 13.6191 140.116 13.6191C141.036 13.6191 141.873 13.8408 142.627 14.2844C143.394 14.7156 143.994 15.3255 144.429 16.114C144.863 16.9025 145.081 17.8081 145.081 18.8307C145.081 19.8533 144.863 20.7712 144.429 21.5844C143.994 22.3852 143.394 23.0136 142.627 23.4694C141.873 23.913 141.036 24.1347 140.116 24.1347C139.311 24.1347 138.595 23.9807 137.969 23.6727C137.343 23.3524 136.832 22.9581 136.435 22.4899V28.8104H134.25V13.7854H136.435V15.2823ZM142.857 18.8307C142.857 18.1284 142.704 17.5247 142.397 17.0196C142.103 16.5021 141.707 16.114 141.208 15.8553C140.723 15.5842 140.199 15.4487 139.637 15.4487C139.087 15.4487 138.563 15.5842 138.065 15.8553C137.579 16.1263 137.183 16.5206 136.876 17.038C136.582 17.5555 136.435 18.1654 136.435 18.8677C136.435 19.5699 136.582 20.186 136.876 20.7158C137.183 21.2332 137.579 21.6275 138.065 21.8985C138.563 22.1696 139.087 22.3051 139.637 22.3051C140.199 22.3051 140.723 22.1696 141.208 21.8985C141.707 21.6152 142.103 21.2086 142.397 20.6788C142.704 20.149 142.857 19.533 142.857 18.8307Z" fill="#13BFB3"/>
</svg>
