<svg width="236" height="160" viewBox="0 0 236 160" fill="none" xmlns="http://www.w3.org/2000/svg">
<path d="M110.498 70.9362C109.728 73.6499 108.543 76.2284 106.986 78.5804C105.374 81.0326 103.337 83.1768 100.97 84.9118C98.4013 86.7887 95.5419 88.2315 92.506 89.1826C89.0379 90.2659 85.4205 90.795 81.7875 90.7502C77.5901 90.7606 73.4268 89.9963 69.5069 88.4957C65.6456 87.0309 62.1121 84.817 59.1097 81.9815C56.0332 79.046 53.6 75.5036 51.964 71.5787C50.1419 67.1274 49.2466 62.3512 49.3328 57.5422C49.2638 52.8769 50.138 48.2457 51.9031 43.9266C53.4937 40.058 55.838 36.5444 58.7995 33.5903C64.5604 27.9138 72.315 24.7186 80.4026 24.6887C90.089 24.6887 97.7129 27.4879 103.274 33.0863C108.836 38.6846 111.615 46.5393 111.611 56.6504C111.611 57.9872 111.568 59.2612 111.484 60.4725C111.47 61.1678 111.386 61.86 111.234 62.5386H67.8839C67.9469 64.2268 68.398 65.8777 69.2022 67.3633C69.9912 68.8259 71.0537 70.1234 72.3319 71.1854C73.6424 72.2869 75.1446 73.1376 76.7633 73.6947C78.4569 74.2835 80.2383 74.5794 82.0312 74.5699C85.5357 74.5699 88.2721 73.8184 90.2404 72.3154C92.2081 70.8005 93.7062 68.7588 94.5611 66.4272L110.498 70.9362ZM93.1984 50.258C93.0988 49.0146 92.8247 47.7913 92.3841 46.6243C91.9033 45.3469 91.1468 44.1914 90.1684 43.2398C89.0641 42.1697 87.7672 41.3183 86.3463 40.7305C84.5331 40.0167 82.5942 39.6775 80.6464 39.7334C78.8418 39.6941 77.0492 40.0338 75.3841 40.7305C73.9733 41.3374 72.6798 42.1867 71.562 43.2398C70.5488 44.1965 69.7387 45.3476 69.1801 46.6243C68.6602 47.7726 68.3417 49.0018 68.2384 50.258H93.1984Z" fill="#111928"/>
<path d="M172.367 70.9359C171.596 73.6485 170.414 76.2267 168.86 78.5801C167.252 81.0311 165.218 83.1752 162.856 84.9115C160.284 86.7906 157.421 88.2335 154.381 89.1823C150.915 90.2652 147.299 90.7943 143.668 90.7499C139.469 90.7609 135.303 89.9966 131.382 88.4954C127.518 87.0313 123.983 84.8174 120.979 81.9812C117.906 79.0441 115.475 75.502 113.839 71.5785C112.012 67.1283 111.115 62.3516 111.202 57.5419C111.135 52.8822 112.009 48.2569 113.772 43.943C115.365 40.0755 117.709 36.5622 120.669 33.6067C126.431 27.9327 134.185 24.7379 142.272 24.7051C151.962 24.7051 159.586 27.5043 165.144 33.1026C170.701 38.701 173.471 46.5557 173.453 56.6667C173.453 58.0035 173.41 59.2776 173.325 60.4888C173.315 61.1844 173.231 61.8769 173.076 62.555H129.753C129.816 64.2431 130.267 65.8941 131.071 67.3797C131.861 68.8423 132.923 70.1398 134.201 71.2018C135.512 72.3028 137.014 73.1533 138.633 73.7111C140.324 74.3003 142.104 74.5963 143.895 74.5863C147.399 74.5863 150.136 73.8348 152.104 72.3318C154.072 70.8168 155.57 68.7752 156.425 66.4435L172.367 70.9359ZM155.101 50.2578C154.996 49.0151 154.722 47.7926 154.287 46.624C153.804 45.3478 153.047 44.1926 152.071 43.2395C150.965 42.1719 149.668 41.3208 148.249 40.7302C146.434 40.017 144.493 39.6779 142.543 39.7331C140.739 39.6939 138.946 40.0335 137.281 40.7302C135.87 41.3371 134.577 42.1864 133.459 43.2395C132.446 44.1963 131.636 45.3473 131.077 46.624C130.557 47.7723 130.239 49.0015 130.135 50.2578H155.101Z" fill="#111928"/>
<path d="M210.55 54.645L235.366 90.7389H212.051L197.388 68.8034L191.251 75.4505V90.7389H172.201V0H191.251V49.3771L210.173 28.4497H234.867L210.55 54.645Z" fill="#111928"/>
<path d="M23.1656 90.6722C23.7583 90.6722 24.3234 90.7387 24.9382 90.7387C28.6551 90.8161 32.3539 90.2 35.845 88.9218C38.7103 87.8432 41.3427 86.2262 43.6 84.158C45.6192 82.2916 47.2022 80.0032 48.2364 77.4555C49.2289 74.9905 49.7385 72.3578 49.7376 69.7005C49.7679 65.1808 48.0902 60.8165 45.0403 57.4809C41.9161 53.9209 37.0951 51.4707 30.5772 50.1302L22.3071 48.5017C21.0286 48.3113 19.8208 47.7943 18.8007 47.0005C18.3431 46.621 17.9802 46.14 17.7408 45.5958C17.5014 45.0516 17.392 44.4591 17.4214 43.8653C17.397 43.0916 17.568 42.3241 17.9184 41.6339C18.2689 40.9436 18.7876 40.3527 19.4266 39.9158C20.8198 38.9389 22.4894 38.4342 24.1904 38.4756C27.1078 38.4756 29.2588 39.2271 30.6437 40.7301C32.0159 42.2175 32.8725 44.1074 33.0865 46.1198L48.879 43.2394C48.6537 41.181 48.104 39.1712 47.2504 37.2846C46.2264 35.0096 44.7551 32.9638 42.9242 31.269C40.7167 29.244 38.1455 27.6558 35.3465 26.5883C32.2482 25.3327 28.4464 24.7049 23.9411 24.7049C20.6494 24.6775 17.3794 25.2404 14.2862 26.3667C11.5059 27.3617 8.93456 28.8643 6.7029 30.7981C4.61736 32.6157 2.9328 34.8473 1.75633 37.3511C0.582627 39.8612 -0.0172158 42.6011 0.000376042 45.372C-0.00732584 47.5008 0.331299 49.6168 1.00299 51.6369C1.69009 53.6905 2.7996 55.5774 4.26008 57.1762C5.91236 58.9629 7.86376 60.4475 10.0265 61.5633C12.7187 62.9477 15.5866 63.9595 18.5514 64.5711L25.6916 66.2329C28.0291 66.7314 29.6374 67.4202 30.5163 68.2991C30.9345 68.693 31.2674 69.1686 31.4942 69.6965C31.7209 70.2244 31.8368 70.7933 31.8346 71.3678C31.8252 72.0895 31.6576 72.8002 31.3437 73.4501C31.0298 74.0999 30.5771 74.673 30.0177 75.129C29.3741 75.6829 28.6182 76.0911 27.802 76.3255L23.1656 90.6722Z" fill="#111928"/>
<path d="M20.6785 95.1481H1.62891V157.437H20.6785V95.1481Z" fill="#111928"/>
<path d="M60.5343 93.2703C64.9964 93.2291 69.4238 94.0588 73.5682 95.7131C77.4746 97.2731 81.0316 99.5948 84.0319 102.543C87.0323 105.516 89.4172 109.051 91.0501 112.946C92.8049 117.155 93.6796 121.68 93.6204 126.24C93.6752 130.818 92.8008 135.359 91.0501 139.59C89.4473 143.499 87.0733 147.045 84.0696 150.016C81.066 152.987 77.4944 155.323 73.5682 156.883C69.4249 158.542 64.997 159.374 60.5343 159.332C56.0715 159.374 51.6436 158.542 47.5003 156.883C43.5741 155.323 40.0025 152.987 36.9989 150.016C33.9952 147.045 31.6212 143.499 30.0184 139.59C28.2684 135.361 27.394 130.822 27.4481 126.246C27.3889 121.685 28.2636 117.161 30.0184 112.951C31.6512 109.056 34.0362 105.521 37.0366 102.549C40.0369 99.6004 43.5939 97.2786 47.5003 95.7186C51.6444 94.0625 56.0717 93.2308 60.5343 93.2703V93.2703ZM60.5343 141.772C62.3329 141.781 64.118 141.462 65.8021 140.831C67.4692 140.2 68.9807 139.218 70.2335 137.95C71.5852 136.564 72.649 134.925 73.3632 133.125C74.9514 128.688 74.9514 123.837 73.3632 119.399C72.6691 117.59 71.6029 115.946 70.2335 114.574C68.9663 113.339 67.4577 112.379 65.8021 111.755C62.424 110.506 58.711 110.506 55.3329 111.755C53.647 112.364 52.1101 113.326 50.8239 114.574C49.4507 115.944 48.3823 117.588 47.6887 119.399C46.1008 123.816 46.1008 128.648 47.6887 133.064C48.3956 134.88 49.462 136.534 50.8239 137.928C52.0949 139.21 53.6351 140.194 55.3329 140.808C56.9954 141.437 58.7569 141.763 60.5343 141.772Z" fill="#111928"/>
<path d="M137.99 113.948C136.958 113.708 135.911 113.541 134.855 113.45C133.852 113.367 132.894 113.323 131.975 113.323C130.093 113.313 128.222 113.609 126.435 114.198C124.685 114.784 123.097 115.772 121.799 117.084C120.363 118.584 119.273 120.38 118.603 122.346C117.759 124.892 117.363 127.564 117.434 130.245V157.437H98.3789V95.1481H116.803V103.546C117.569 101.887 118.655 100.396 119.999 99.1586C121.243 98.0196 122.661 97.0849 124.197 96.3889C125.663 95.7361 127.198 95.2529 128.773 94.9487C130.156 94.6754 131.562 94.5289 132.972 94.5111C134.664 94.4825 136.352 94.6932 137.985 95.1371L137.99 113.948Z" fill="#111928"/>
<path d="M1.62891 79.5825C1.63829 77.0538 2.6456 74.6311 4.43178 72.8412C5.29061 71.9796 6.3058 71.2897 7.42299 70.8083C8.57099 70.3089 9.81043 70.0543 11.0623 70.0605C12.333 70.0297 13.5966 70.2595 14.7751 70.7359C15.9536 71.2122 17.022 71.925 17.9144 72.8301C19.6957 74.6215 20.6955 77.0451 20.6955 79.5714C20.6955 82.0977 19.6957 84.5213 17.9144 86.3127C17.0226 87.2187 15.9543 87.9319 14.7756 88.4083C13.597 88.8847 12.3332 89.1141 11.0623 89.0824C9.81043 89.0886 8.57099 88.8339 7.42299 88.3346C6.30886 87.8574 5.29422 87.1753 4.43178 86.3238C2.65778 84.5285 1.66269 82.1064 1.66214 79.5825H1.62891Z" fill="#13BFB3"/>
</svg>
