<svg width="125" height="36" viewBox="0 0 125 36" fill="none" xmlns="http://www.w3.org/2000/svg">
<mask id="mask0_463_157" style="mask-type:alpha" maskUnits="userSpaceOnUse" x="0" y="0" width="35" height="36">
<path d="M17.3791 35.8377C26.9773 35.8377 34.7582 27.8151 34.7582 17.9188C34.7582 8.02254 26.9773 0 17.3791 0C7.78089 0 0 8.02254 0 17.9188C0 27.8151 7.78089 35.8377 17.3791 35.8377Z" fill="#03012A"/>
</mask>
<g mask="url(#mask0_463_157)">
<path fill-rule="evenodd" clip-rule="evenodd" d="M19.7416 1.55275C19.7078 2.01899 19.3024 2.36954 18.8362 2.33573C15.6945 2.10792 12.4397 2.79218 9.50951 4.47502L9.40332 4.54993L9.37165 4.56839C2.37908 8.64477 -0.0550745 17.7291 3.96249 24.7557L3.98068 24.7875L4.03495 24.905C8.4654 32.5156 18.0763 35.2636 25.8082 31.2457C26.223 31.0302 26.734 31.1917 26.9496 31.6065C27.1651 32.0213 27.0036 32.5323 26.5888 32.7479C18.0437 37.1883 7.42649 34.14 2.55068 25.72L2.53115 25.6862L2.47452 25.5637C-1.97239 17.7456 0.726862 7.67186 8.48703 3.12466L8.59691 3.04715L8.63019 3.02793C11.8699 1.15749 15.4761 0.394805 18.9586 0.647335C19.4248 0.681144 19.7754 1.08651 19.7416 1.55275Z" fill="#181818"/>
<path fill-rule="evenodd" clip-rule="evenodd" d="M8.91416 9.47784C12.4618 5.95398 17.4738 4.83328 21.9678 6.10368C22.4177 6.23084 22.8854 5.96926 23.0126 5.51943C23.1397 5.0696 22.8781 4.60185 22.4283 4.47469C17.3548 3.04047 11.685 4.31282 7.6845 8.31336L7.65142 8.34644L7.55446 8.46759C7.26236 8.83255 7.32142 9.3652 7.68638 9.6573C8.05134 9.94941 8.584 9.89034 8.8761 9.52538L8.91416 9.47784Z" fill="#181818"/>
<path fill-rule="evenodd" clip-rule="evenodd" d="M11.1669 11.4908C11.1668 11.4909 11.167 11.4907 11.1669 11.4908L11.0994 11.5584C10.769 11.889 10.233 11.8892 9.90237 11.5588C9.5717 11.2284 9.5715 10.6925 9.90192 10.3618L9.96964 10.294C13.3592 6.90449 18.2775 5.97774 22.5002 7.48844C22.9403 7.6459 23.1695 8.13036 23.012 8.5705C22.8545 9.01065 22.3701 9.2398 21.9299 9.08234C18.298 7.78298 14.0747 8.58322 11.1669 11.4908Z" fill="#181818"/>
<path fill-rule="evenodd" clip-rule="evenodd" d="M21.85 12.1387C19.1176 10.7573 15.7236 11.2001 13.4522 13.4716L13.4011 13.5226C13.0704 13.853 12.5345 13.8527 12.2041 13.522C11.8737 13.1913 11.874 12.6554 12.2047 12.325L12.2552 12.2746C12.2553 12.2745 12.2551 12.2747 12.2552 12.2746C15.0622 9.4678 19.2522 8.92853 22.6138 10.628C23.031 10.8389 23.1982 11.3481 22.9873 11.7652C22.7764 12.1824 22.2672 12.3496 21.85 12.1387Z" fill="#181818"/>
<path fill-rule="evenodd" clip-rule="evenodd" d="M21.6172 15.4522C19.9841 13.8191 17.3544 13.8191 15.7213 15.4522L15.6889 15.4846C14.2738 16.9149 14.2738 19.2761 15.689 20.7064C15.6894 20.7069 15.6898 20.7073 15.6903 20.7078L15.7213 20.7388C17.2948 22.3122 19.8434 22.3561 21.4755 20.8647C21.8206 20.5494 22.3559 20.5735 22.6713 20.9186C22.9866 21.2637 22.9625 21.7991 22.6174 22.1144C20.3221 24.2118 16.7427 24.1542 14.5243 21.9358L14.4875 21.899C12.4172 19.8086 12.4172 16.3824 14.4875 14.292L14.4904 14.2891L14.5243 14.2552C16.8185 11.961 20.52 11.961 22.8142 14.2552C23.1448 14.5857 23.1448 15.1217 22.8142 15.4522C22.4837 15.7827 21.9478 15.7827 21.6172 15.4522Z" fill="#181818"/>
</g>
<path d="M36.4854 16.0357C36.4854 14.9004 36.7213 13.8906 37.1931 13.0064C37.676 12.1112 38.3563 11.418 39.2342 10.9268C40.1121 10.4246 41.1216 10.1735 42.2628 10.1735C43.7113 10.1735 44.9294 10.5611 45.917 11.3361C46.9046 12.1003 47.541 13.1428 47.8264 14.4637H44.3533C44.1448 14.0271 43.854 13.6941 43.4809 13.4649C43.1188 13.2356 42.6963 13.121 42.2135 13.121C41.4673 13.121 40.8692 13.3885 40.4193 13.9234C39.9804 14.4474 39.7609 15.1515 39.7609 16.0357C39.7609 16.9309 39.9804 17.6459 40.4193 18.1808C40.8692 18.7048 41.4673 18.9668 42.2135 18.9668C42.6963 18.9668 43.1188 18.8522 43.4809 18.6229C43.854 18.3937 44.1448 18.0607 44.3533 17.6241H47.8264C47.541 18.945 46.9046 19.993 45.917 20.7681C44.9294 21.5322 43.7113 21.9143 42.2628 21.9143C41.1216 21.9143 40.1121 21.6687 39.2342 21.1774C38.3563 20.6753 37.676 19.9821 37.1931 19.0978C36.7213 18.2027 36.4854 17.182 36.4854 16.0357Z" fill="#181818"/>
<path d="M52.5802 9.71503V21.8324H49.3541V9.71503H52.5802Z" fill="#181818"/>
<path d="M63.2401 17.1328C63.2401 17.3839 63.2236 17.635 63.1907 17.8861H57.084C57.1169 18.3882 57.2541 18.7649 57.4955 19.0159C57.7479 19.2561 58.0661 19.3762 58.4502 19.3762C58.9879 19.3762 59.372 19.136 59.6024 18.6557H63.0426C62.8999 19.2889 62.6201 19.8565 62.2031 20.3587C61.7971 20.8499 61.2813 21.2375 60.6558 21.5213C60.0304 21.8051 59.339 21.947 58.5819 21.947C57.6711 21.947 56.859 21.756 56.1458 21.3739C55.4435 20.9918 54.8893 20.446 54.4833 19.7364C54.0883 19.0269 53.8907 18.1917 53.8907 17.2311C53.8907 16.2704 54.0883 15.4408 54.4833 14.7421C54.8784 14.0325 55.427 13.4867 56.1293 13.1046C56.8426 12.7225 57.6601 12.5315 58.5819 12.5315C59.4927 12.5315 60.2992 12.7171 61.0015 13.0882C61.7038 13.4594 62.2525 13.9943 62.6475 14.693C63.0426 15.3807 63.2401 16.194 63.2401 17.1328ZM59.9481 16.3305C59.9481 15.9375 59.8164 15.6318 59.553 15.4135C59.2897 15.1842 58.9605 15.0696 58.5654 15.0696C58.1704 15.0696 57.8467 15.1788 57.5943 15.3971C57.3419 15.6045 57.1773 15.9156 57.1005 16.3305H59.9481Z" fill="#181818"/>
<path d="M68.9881 18.8031L70.7164 12.6461H74.1566L70.9798 21.8324H66.9635L63.7867 12.6461H67.2269L68.9881 18.8031Z" fill="#181818"/>
<path d="M84.0724 17.1328C84.0724 17.3839 84.0559 17.635 84.023 17.8861H77.9163C77.9492 18.3882 78.0864 18.7649 78.3278 19.0159C78.5802 19.2561 78.8984 19.3762 79.2825 19.3762C79.8202 19.3762 80.2043 19.136 80.4347 18.6557H83.8749C83.7322 19.2889 83.4524 19.8565 83.0354 20.3587C82.6294 20.8499 82.1136 21.2375 81.4882 21.5213C80.8627 21.8051 80.1713 21.947 79.4142 21.947C78.5034 21.947 77.6914 21.756 76.9781 21.3739C76.2758 20.9918 75.7216 20.446 75.3156 19.7364C74.9206 19.0269 74.7231 18.1917 74.7231 17.2311C74.7231 16.2704 74.9206 15.4408 75.3156 14.7421C75.7107 14.0325 76.2593 13.4867 76.9616 13.1046C77.6749 12.7225 78.4924 12.5315 79.4142 12.5315C80.325 12.5315 81.1315 12.7171 81.8338 13.0882C82.5361 13.4594 83.0848 13.9943 83.4798 14.693C83.8749 15.3807 84.0724 16.194 84.0724 17.1328ZM80.7804 16.3305C80.7804 15.9375 80.6487 15.6318 80.3853 15.4135C80.122 15.1842 79.7928 15.0696 79.3977 15.0696C79.0027 15.0696 78.679 15.1788 78.4266 15.3971C78.1742 15.6045 78.0096 15.9156 77.9328 16.3305H80.7804Z" fill="#181818"/>
<path d="M88.6188 14.2672C88.981 13.7432 89.4199 13.3284 89.9357 13.0227C90.4514 12.7171 91.0056 12.5642 91.5981 12.5642V15.9866H90.6928C89.9905 15.9866 89.4693 16.1231 89.1291 16.396C88.7889 16.6689 88.6188 17.1437 88.6188 17.8206V21.8324H85.3927V12.6461H88.6188V14.2672Z" fill="#181818"/>
<path d="M99.9642 19.5072H95.1743L94.3513 21.8324H92.3926L96.4911 10.4355H98.6639L102.762 21.8324H100.787L99.9642 19.5072ZM99.4375 17.9843L97.5775 12.6952L95.7011 17.9843H99.4375Z" fill="#181818"/>
<path d="M106.421 14.1362C106.739 13.7214 107.173 13.3721 107.721 13.0882C108.27 12.8044 108.89 12.6625 109.581 12.6625C110.371 12.6625 111.09 12.859 111.738 13.252C112.396 13.6341 112.912 14.1744 113.285 14.8731C113.658 15.5718 113.844 16.3741 113.844 17.2802C113.844 18.1863 113.658 18.9996 113.285 19.7201C112.912 20.4296 112.396 20.9864 111.738 21.3903C111.09 21.7833 110.371 21.9798 109.581 21.9798C108.89 21.9798 108.275 21.8433 107.738 21.5704C107.2 21.2866 106.761 20.9373 106.421 20.5224V26.1226H104.545V12.8099H106.421V14.1362ZM111.935 17.2802C111.935 16.658 111.803 16.1231 111.54 15.6755C111.288 15.217 110.947 14.8731 110.52 14.6439C110.103 14.4037 109.653 14.2836 109.17 14.2836C108.698 14.2836 108.248 14.4037 107.82 14.6439C107.403 14.884 107.063 15.2334 106.8 15.6918C106.547 16.1503 106.421 16.6907 106.421 17.313C106.421 17.9352 106.547 18.481 106.8 18.9504C107.063 19.4089 107.403 19.7583 107.82 19.9984C108.248 20.2386 108.698 20.3587 109.17 20.3587C109.653 20.3587 110.103 20.2386 110.52 19.9984C110.947 19.7474 111.288 19.3871 111.54 18.9177C111.803 18.4483 111.935 17.9025 111.935 17.2802Z" fill="#181818"/>
<path d="M117.577 14.1362C117.895 13.7214 118.328 13.3721 118.877 13.0882C119.426 12.8044 120.046 12.6625 120.737 12.6625C121.527 12.6625 122.246 12.859 122.893 13.252C123.552 13.6341 124.067 14.1744 124.44 14.8731C124.813 15.5718 125 16.3741 125 17.2802C125 18.1863 124.813 18.9996 124.44 19.7201C124.067 20.4296 123.552 20.9864 122.893 21.3903C122.246 21.7833 121.527 21.9798 120.737 21.9798C120.046 21.9798 119.431 21.8433 118.893 21.5704C118.356 21.2866 117.917 20.9373 117.577 20.5224V26.1226H115.7V12.8099H117.577V14.1362ZM123.091 17.2802C123.091 16.658 122.959 16.1231 122.696 15.6755C122.443 15.217 122.103 14.8731 121.675 14.6439C121.258 14.4037 120.808 14.2836 120.325 14.2836C119.854 14.2836 119.404 14.4037 118.976 14.6439C118.559 14.884 118.218 15.2334 117.955 15.6918C117.703 16.1503 117.577 16.6907 117.577 17.313C117.577 17.9352 117.703 18.481 117.955 18.9504C118.218 19.4089 118.559 19.7583 118.976 19.9984C119.404 20.2386 119.854 20.3587 120.325 20.3587C120.808 20.3587 121.258 20.2386 121.675 19.9984C122.103 19.7474 122.443 19.3871 122.696 18.9177C122.959 18.4483 123.091 17.9025 123.091 17.2802Z" fill="#181818"/>
</svg>
