<svg width="512" height="512" viewBox="0 0 512 512" fill="none" xmlns="http://www.w3.org/2000/svg">
<rect width="512" height="512" fill="#84E1D9"/>
<mask id="mask0_758_1403" style="mask-type:alpha" maskUnits="userSpaceOnUse" x="35" y="34" width="443" height="443">
<path d="M256.5 477C378.831 477 478 377.831 478 255.5C478 133.169 378.831 34 256.5 34C134.169 34 35 133.169 35 255.5C35 377.831 134.169 477 256.5 477Z" fill="#03012A"/>
</mask>
<g mask="url(#mask0_758_1403)">
<path fill-rule="evenodd" clip-rule="evenodd" d="M286.607 53.1929C286.176 58.9563 281.01 63.2895 275.068 62.8716C235.027 60.0555 193.543 68.5139 156.198 89.3161L154.844 90.242L154.441 90.4702C65.3188 140.86 34.2951 253.154 85.4997 340.011L85.7316 340.405L86.4233 341.857C142.89 435.934 265.383 469.903 363.928 420.237C369.215 417.572 375.728 419.569 378.475 424.697C381.222 429.824 379.163 436.141 373.877 438.805C264.967 493.695 129.649 456.014 67.5059 351.931L67.257 351.514L66.5352 349.999C9.85854 253.358 44.261 128.833 143.166 72.6238L144.566 71.6657L144.99 71.4282C186.281 48.307 232.243 38.8793 276.628 42.0008C282.57 42.4188 287.038 47.4296 286.607 53.1929Z" fill="#1C1C1C"/>
<path fill-rule="evenodd" clip-rule="evenodd" d="M148.612 151.158C193.828 107.599 257.706 93.7453 314.984 109.449C320.717 111.021 326.679 107.788 328.299 102.227C329.92 96.6665 326.586 90.8846 320.853 89.3127C256.189 71.5838 183.928 87.3118 132.94 136.764L132.519 137.173L131.283 138.67C127.56 143.181 128.313 149.766 132.964 153.377C137.616 156.987 144.404 156.257 148.127 151.746L148.612 151.158Z" fill="#1C1C1C"/>
<path fill-rule="evenodd" clip-rule="evenodd" d="M177.325 176.042C177.324 176.043 177.326 176.041 177.325 176.042L176.465 176.877C172.253 180.965 165.423 180.967 161.208 176.883C156.994 172.799 156.991 166.174 161.203 162.086L162.066 161.248C205.266 119.349 267.951 107.893 321.77 126.568C327.38 128.514 330.3 134.503 328.293 139.943C326.286 145.384 320.112 148.217 314.502 146.27C268.212 130.209 214.385 140.101 177.325 176.042Z" fill="#1C1C1C"/>
<path fill-rule="evenodd" clip-rule="evenodd" d="M313.487 184.051C278.661 166.975 235.405 172.449 206.455 200.527L205.804 201.158C201.588 205.242 194.758 205.238 190.547 201.15C186.337 197.062 186.34 190.437 190.555 186.354L191.198 185.73C191.2 185.729 191.197 185.731 191.198 185.73C226.975 151.035 280.377 144.369 323.221 165.377C328.538 167.984 330.669 174.278 327.981 179.434C325.293 184.591 318.804 186.658 313.487 184.051Z" fill="#1C1C1C"/>
<path fill-rule="evenodd" clip-rule="evenodd" d="M310.515 225.009C289.701 204.822 256.185 204.822 235.37 225.009L234.958 225.41C216.922 243.091 216.922 272.278 234.958 289.959C234.964 289.964 234.969 289.97 234.975 289.975L235.37 290.358C255.425 309.809 287.908 310.35 308.709 291.915C313.107 288.017 319.93 288.315 323.949 292.581C327.968 296.847 327.661 303.465 323.263 307.363C294.008 333.29 248.389 332.578 220.114 305.155L219.645 304.7C193.259 278.86 193.259 236.508 219.645 210.668L219.682 210.632L220.114 210.213C249.354 181.853 296.531 181.853 325.771 210.213C329.984 214.299 329.984 220.923 325.771 225.009C321.559 229.095 314.728 229.095 310.515 225.009Z" fill="#1C1C1C"/>
</g>
</svg>
